<svg fill="#86BC25" role="img" viewBox="0 0 24 24" xmlns="http://www.w3.org/2000/svg"><title>Deloitte</title><path d="M15.097 0c-1.326 0-2.754.5-2.754 2.093 0 1.188.744 1.862 1.862 2.338l1.369.535c.662.264 1.103.5 1.103 1.07 0 .676-.573.941-1.163.941-.794 0-1.397-.412-1.809-1.014l-1.235 1.308c.705.87 1.78 1.396 3.003 1.396 1.588 0 2.809-.867 2.809-2.308 0-1.265-.809-1.808-1.985-2.279l-1.323-.544c-.574-.22-.926-.456-.926-.999 0-.573.441-.868 1.015-.868.617 0 1.146.323 1.515.808l1.147-1.25c-.588-.75-1.44-1.133-2.588-1.133zm-6.79.044v6.877h1.808V2.336h2.868V.044H8.308zm-3.71 0v6.877h1.808V2.336h2.868V.044H4.597zm15.793 8.866v6.877h1.809V8.91h-1.809zm-15.793 0v6.877h1.808v-4.585h2.868V8.91H4.597zm7.103 0c-1.926 0-3.49 1.456-3.49 3.456 0 1.999 1.564 3.456 3.49 3.456 1.927 0 3.491-1.457 3.491-3.456 0-2-1.564-3.456-3.491-3.456zm0 1.69c.971 0 1.691.779 1.691 1.766 0 .987-.72 1.766-1.691 1.766-.97 0-1.69-.779-1.69-1.766 0-.987.72-1.766 1.69-1.766zm8.69 0v1.543h-1.544v1.69h1.544v1.544h1.691v-1.544h1.544v-1.69h-1.544V10.6h-1.691z"/></svg>