<svg fill="#00A3FF" role="img" viewBox="0 0 24 24" xmlns="http://www.w3.org/2000/svg"><title>Tencent</title><path d="M7.777 0C3.46 0 0 3.46 0 7.777s3.46 7.778 7.777 7.778h8.446c4.317 0 7.777-3.46 7.777-7.778S20.54 0 16.223 0H7.777zm1.447 5.554h5.552c1.222 0 2.22.999 2.22 2.223 0 1.224-.998 2.222-2.22 2.222h-1.11v2.778h5.552V5.554h-9.994v2.777h1.11V7.777c0-.612.498-1.11 1.11-1.11h3.332c.612 0 1.11.498 1.11 1.11v.555c0 .612-.498 1.11-1.11 1.11H9.224V5.554zm0 5.555v5.553h1.11v-2.777h1.111v2.777h1.11v-2.777h1.111v2.777h1.11V11.11H9.224zm7.774 0v5.553h1.11v-2.777h1.666v2.777h1.11V11.11h-3.886zm-5.553 1.11h1.11v1.111h-1.11v-1.11z"/></svg>